<svg width="40" height="50" viewBox="0 0 40 50" xmlns="http://www.w3.org/2000/svg">
    <!-- Pin Shape -->
    <path d="M20 0C8.95 0 0 8.95 0 20C0 31.05 20 50 20 50C20 50 40 31.05 40 20C40 8.95 31.05 0 20 0Z" fill="#1a1a1a"/>
    <circle cx="20" cy="20" r="16" fill="white"/>
    <!-- Wine Glass Icon -->
    <path d="M20 12C17.79 12 16 13.79 16 16V22C16 23.1 16.9 24 18 24V27H17V29H23V27H22V24C23.1 24 24 23.1 24 22V16C24 13.79 22.21 12 20 12ZM18 16C18 14.9 18.9 14 20 14C21.1 14 22 14.9 22 16V18H18V16ZM22 20V22H18V20H22Z" fill="#1a1a1a"/>
</svg>
